<svg width="30" height="28" viewBox="0 0 30 28" fill="none" xmlns="http://www.w3.org/2000/svg">
<path d="M28.5 9.4375C28.4375 9.75 28.125 10 27.75 10H22.8125L21.375 18H26.0625C26.5625 18 26.875 18.4375 26.8125 18.9375L26.375 21.4375C26.3125 21.75 26 22 25.625 22H20.6875L19.75 27.4375C19.6875 27.75 19.375 28 19 28H16.4375C16 28 15.625 27.625 15.6875 27.125L16.625 22H10.4375L9.5 27.4375C9.4375 27.75 9.125 28 8.75 28H6.25C5.75 28 5.375 27.625 5.5 27.125L6.375 22H1.75C1.25 22 0.875 21.625 1 21.125L1.4375 18.625C1.5 18.3125 1.8125 18 2.1875 18H7.125L8.5625 10H3.875C3.375 10 3.0625 9.625 3.125 9.125L3.5625 6.625C3.625 6.3125 3.9375 6 4.3125 6H9.25L10.1875 0.625C10.25 0.3125 10.5625 0 10.9375 0H13.5C13.9375 0 14.3125 0.4375 14.25 0.9375L13.3125 6H19.5L20.4375 0.625C20.5 0.3125 20.8125 0 21.1875 0H23.6875C24.1875 0 24.5625 0.4375 24.4375 0.9375L23.5625 6H28.1875C28.6875 6 29.0625 6.4375 28.9375 6.9375L28.5 9.4375ZM17.3125 18L18.75 10H12.625L11.1875 18H17.3125Z" fill="#2E6485"/>
</svg>
