<svg width="33" height="33" viewBox="0 0 33 33" fill="none" xmlns="http://www.w3.org/2000/svg">
<path d="M31.8125 2.5625C32.5 2.75 33 3.3125 33 4C33 20.0625 20 33 4 33C3.25 33 2.6875 32.5625 2.5 31.875L1 25.375C0.875 24.6875 1.1875 23.9375 1.875 23.625L8.875 20.625C9.5 20.375 10.1875 20.5625 10.625 21.0625L13.75 24.875C18.625 22.5625 22.5625 18.5625 24.8125 13.8125L21 10.6875C20.5 10.25 20.3125 9.5625 20.5625 8.9375L23.5625 1.9375C23.875 1.25 24.625 0.875 25.3125 1.0625L31.8125 2.5625Z" fill="#2E6485"/>
</svg>
